<?xml version="1.0" encoding="utf-8"?>
<!-- Generator: Adobe Illustrator 16.0.4, SVG Export Plug-In . SVG Version: 6.00 Build 0)  -->
<!DOCTYPE svg PUBLIC "-//W3C//DTD SVG 1.1//EN" "http://www.w3.org/Graphics/SVG/1.1/DTD/svg11.dtd">
<svg version="1.1" xmlns="http://www.w3.org/2000/svg" xmlns:xlink="http://www.w3.org/1999/xlink" x="0px" y="0px" width="512px"
	 height="512px" viewBox="0 0 512 512" enable-background="new 0 0 512 512" xml:space="preserve">
<g id="Layer_1" display="none">
	<g display="inline">
		<defs>
			<rect id="SVGID_1_" width="512" height="512"/>
		</defs>
		<clipPath id="SVGID_2_">
			<use xlink:href="#SVGID_1_"  overflow="visible"/>
		</clipPath>
		<path clip-path="url(#SVGID_2_)" d="M256,111.9L256,111.9z"/>
	</g>
	<g display="inline">
		<defs>
			<rect id="SVGID_3_" width="512" height="512"/>
		</defs>
		<clipPath id="SVGID_4_">
			<use xlink:href="#SVGID_3_"  overflow="visible"/>
		</clipPath>
		<path clip-path="url(#SVGID_4_)" fill="#005082" d="M349.2,334.8c-11.2-3.899-29.5-5.1-37.5-8.2c-5.601-2.199-14.5-4.5-17.3-8
			c-2.9-3.399-2.9-28.1-2.9-28.1s7-6.5,9.9-13.8c2.899-7.3,4.8-27.1,4.8-27.1s0.6,0.2,1.5,0.2c2.1,0,5.899-1.4,7.7-10.6
			c2.199-11.3,6.399-17.2,5.3-25.5c-0.8-5.6-3.2-6.5-4.601-6.5c-0.699,0-1.199,0.2-1.199,0.2s5.699-8.4,5.699-37
			c0-29.4-22.699-58.4-64.6-58.5c-42,0.1-64.6,29.1-64.6,58.5c0,28.5,5.7,37,5.7,37s-0.5-0.2-1.2-0.2c-1.5,0-3.9,0.9-4.6,6.5
			c-1.1,8.3,3,14.3,5.3,25.5c1.8,9.2,5.6,10.6,7.7,10.6c0.9,0,1.5-0.2,1.5-0.2s1.9,19.9,4.8,27.1c2.9,7.3,9.9,13.8,9.9,13.8
			s0,24.7-2.9,28.1c-2.9,3.4-11.7,5.801-17.3,8c-8,3.101-26.3,4.301-37.5,8.2C151.6,338.7,117,355,117,400h278
			C395,355,360.5,338.7,349.2,334.8z"/>
	</g>
	<g display="inline">
		<defs>
			<rect id="SVGID_5_" width="512" height="512"/>
		</defs>
		<clipPath id="SVGID_6_">
			<use xlink:href="#SVGID_5_"  overflow="visible"/>
		</clipPath>
		<path clip-path="url(#SVGID_6_)" fill="#005082" d="M144.1,322c9-4.5,17.8-4.5,24.6-5.4c0,0,3.8-6.199-8.7-8.399
			c0,0-17.1-4.3-19.1-6.7s-0.8-15.7-0.8-15.7s23.9-0.8,33.4-9.2c-15.5-23.2-7.2-50.3-10.4-75.6c-3.1-25.2-18.2-41-47.1-41
			c-0.1,0,0,0-1,0c-28,0-42.4,15.8-45.6,41.1c-3.2,25.3,6,55.4-9.9,75.7c8.9,7.9,30.9,8.3,33.4,8.3c0.2,0,0.2,0,0.2,0l0.1-0.1
			c0,0,1,14.2-1,16.6c-2,2.4-7.9,4.601-11.9,5.5c-8.8,1.9-18.1,5-25.8,7.7C46.8,317.4,32,333,32,352h80.2
			C114.4,344,129.5,329.4,144.1,322z"/>
	</g>
	<g display="inline">
		<defs>
			<rect id="SVGID_7_" width="512" height="512"/>
		</defs>
		<clipPath id="SVGID_8_">
			<use xlink:href="#SVGID_7_"  overflow="visible"/>
		</clipPath>
		<path clip-path="url(#SVGID_8_)" fill="#005082" d="M399.8,352H480c0-19-14.8-34.6-22.5-37.3s-17.1-5.8-25.8-7.7
			c-4.101-0.9-9.9-3.1-11.9-5.5s-1-16.6-1-16.6l0.101,0.1c0,0,0.1,0,0.199,0c2.5,0,24.601-0.3,33.5-8.3
			c-15.899-20.3-6.8-50.4-10-75.7c-3.199-25.2-17.6-41-45.6-41c-1,0-1,0-1,0c-28.9,0-44.1,15.8-47.2,41.1
			c-3.2,25.3,5.101,52.4-10.399,75.6c9.5,8.399,33.399,9.2,33.399,9.2s1.2,13.3-0.8,15.699c-2,2.4-19.1,6.7-19.1,6.7
			c-12.5,2.2-8.7,8.4-8.7,8.4c6.8,0.899,15.7,0.899,24.6,5.399C382.5,329.4,397.6,344,399.8,352z"/>
	</g>
</g>
<g id="Layer_3" display="none">
	<g display="inline">
		<g>
			<defs>
				<rect id="SVGID_9_" x="58.548" y="114.5" width="391.452" height="284.414"/>
			</defs>
			<clipPath id="SVGID_10_">
				<use xlink:href="#SVGID_9_"  overflow="visible"/>
			</clipPath>
			<g clip-path="url(#SVGID_10_)">
				<defs>
					<rect id="SVGID_11_" x="58.548" y="114.5" width="391.452" height="284.414"/>
				</defs>
				<clipPath id="SVGID_12_">
					<use xlink:href="#SVGID_11_"  overflow="visible"/>
				</clipPath>
				<path clip-path="url(#SVGID_12_)" fill-rule="evenodd" clip-rule="evenodd" fill="#005082" d="M254.274,340.984l-80.07-66.502
					L58.548,398.914H450L334.165,274.482L254.274,340.984z M450,370.402l-98.828-108.924L450,175.837V370.402z M58.548,367.793
					l96.127-106.686l-96.127-86.56V367.793z M58.548,150.052l195.726,159.983L450,150.052V114.5H58.548V150.052z"/>
			</g>
		</g>
	</g>
</g>
<g id="Layer_4" display="none">
	<g display="inline">
		<g>
			<defs>
				<rect id="SVGID_13_" x="93.654" y="81.571" width="328.94" height="318.429"/>
			</defs>
			<clipPath id="SVGID_14_">
				<use xlink:href="#SVGID_13_"  overflow="visible"/>
			</clipPath>
			<g clip-path="url(#SVGID_14_)">
				<defs>
					<rect id="SVGID_15_" x="75.375" y="61.757" width="365.571" height="365.571"/>
				</defs>
				<clipPath id="SVGID_16_">
					<use xlink:href="#SVGID_15_"  overflow="visible"/>
				</clipPath>
				<path clip-path="url(#SVGID_16_)" fill-rule="evenodd" clip-rule="evenodd" fill="#005082" d="M121.072,235.184h36.538v-18.05
					h-36.538V235.184z M180.458,235.156h36.557v-18.06h-36.557V235.156z M239.845,235.184h36.557v-18.05h-36.557V235.184z
					 M299.231,235.184h36.558v-18.05h-36.558V235.184z M358.619,235.184h36.557v-18.05h-36.557V235.184z M358.638,271.969h18.259
					v109.744h18.279V253.682H121.072v128.031h18.278V271.969h18.26v109.744h18.279V271.969h18.278v109.744h18.279V271.969h18.26
					v109.744h18.278V271.969h18.277v109.744h18.279V271.969h18.26v109.744h18.279V271.969h18.278v109.744h18.279V271.969z
					 M97.666,198.809h69.083v-23.415c0-2.22,1.8-4.02,4.012-4.02h78.223c0-29.896,0-59.771,0-89.657l17.885,5.959
					c6.444,2.157,12.604,2.157,19.065,0c9.322-3.108,17.438-6.105,27.399-2.788l17.884,5.958v54.881l-17.043-5.858
					c-10.117-3.474-18.407-0.384-27.883,2.741c-6.371,2.102-12.439,2.111-18.837,0.018l-0.193-0.062v28.788h78.205
					c2.23,0,4.03,1.8,4.03,4.021v23.416h69.065c2.23,0,4.031,1.8,4.031,4.02v193.168c0,2.211-1.801,4.012-4.031,4.012H97.666
					c-2.212,0.009-4.012-1.791-4.012-4.012V202.84C93.654,200.609,95.454,198.809,97.666,198.809z"/>
			</g>
		</g>
	</g>
</g>
<g id="Layer_5">
	<g>
		<g>
			<defs>
				<rect id="SVGID_17_" x="79" y="91.786" width="368.656" height="308.214"/>
			</defs>
			<clipPath id="SVGID_18_">
				<use xlink:href="#SVGID_17_"  overflow="visible"/>
			</clipPath>
			<g clip-path="url(#SVGID_18_)">
				<defs>
					<rect id="SVGID_19_" x="74.968" y="57.519" width="376.75" height="376.75"/>
				</defs>
				<clipPath id="SVGID_20_">
					<use xlink:href="#SVGID_19_"  overflow="visible"/>
				</clipPath>
				<path clip-path="url(#SVGID_20_)" fill="#005082" d="M228.683,339.039L94.468,294.742c-1.17-0.388-2.374-0.582-3.595-0.582
					c-4.981,0-9.357,3.172-10.901,7.889c-0.972,2.903-0.734,6.021,0.658,8.764c1.38,2.742,3.75,4.782,6.649,5.72l136.742,45.118
					c0.312,0.096,0.651,0.162,0.987,0.162c0.642,0,1.285-0.207,1.828-0.595c0.816-0.584,1.301-1.522,1.316-2.525
					c0.062-5.385,0.914-10.676,2.537-15.692C231.23,341.349,230.328,339.578,228.683,339.039z"/>
			</g>
			<g clip-path="url(#SVGID_18_)">
				<defs>
					<rect id="SVGID_21_" x="74.968" y="57.519" width="376.75" height="376.75"/>
				</defs>
				<clipPath id="SVGID_22_">
					<use xlink:href="#SVGID_21_"  overflow="visible"/>
				</clipPath>
				<path clip-path="url(#SVGID_22_)" fill="#005082" d="M447.132,108.376c-0.956-5.521-5.706-9.528-11.303-9.528
					c-0.642,0-1.287,0.056-1.938,0.169l-80.813,13.789c-1.149,0.194-2.094,1.017-2.468,2.126l-61.321,188.034
					c-0.282,0.853-0.18,1.793,0.285,2.58c0.459,0.777,1.227,1.316,2.116,1.489c5.142,1.004,10.124,2.775,14.786,5.279
					c0.471,0.247,0.978,0.377,1.491,0.377c0.398,0,0.799-0.076,1.17-0.228c0.875-0.345,1.544-1.058,1.83-1.941l57.799-177.14
					l68.969-11.77c3.027-0.503,5.672-2.16,7.453-4.658C446.965,114.459,447.656,111.409,447.132,108.376z"/>
			</g>
			<g clip-path="url(#SVGID_18_)">
				<defs>
					<rect id="SVGID_23_" x="74.968" y="57.519" width="376.75" height="376.75"/>
				</defs>
				<clipPath id="SVGID_24_">
					<use xlink:href="#SVGID_23_"  overflow="visible"/>
				</clipPath>
				<path clip-path="url(#SVGID_24_)" fill="#005082" d="M201.161,224.596c-0.265,0.303-0.815,0.767-1.614,0.52l-5.579-1.879
					l-2.948-0.982l-9.6,28.656c-0.529,1.566-4.162,1.75-5.688,1.243l-0.216-0.077c-1.547-0.507-3.832-2.688-3.303-4.23l9.585-28.69
					l-2.587-0.862l-5.865-1.965c-0.723-0.238-1.161-0.765-1.214-1.489c-0.053-0.82,0.403-1.716,1.059-2.02l16.836-8.44
					c1.176-0.582,2.591-0.106,3.19,1.058l8.396,16.891C201.921,222.945,201.722,223.938,201.161,224.596z M185.65,268.115
					c-0.696,2.062-2.963,3.195-5.045,2.516l-57.906-19.408c-2.083-0.689-3.238-2.944-2.503-5.051
					c0.684-2.083,2.947-3.195,5.05-2.503l57.891,19.406C185.235,263.766,186.358,266.01,185.65,268.115z M133.733,199.588
					l16.828-8.44c1.161-0.556,2.596-0.102,3.178,1.084l8.426,16.864c0.308,0.627,0.098,1.598-0.47,2.257
					c-0.281,0.323-0.848,0.809-1.598,0.549l-5.607-1.911l-2.935-0.96l-9.596,28.678c-0.534,1.533-4.15,1.75-5.695,1.22l-0.215-0.065
					c-1.533-0.507-3.826-2.688-3.335-4.253l9.624-28.667l-2.593-0.875l-5.861-1.944c-0.717-0.248-1.175-0.787-1.213-1.5
					C132.602,200.828,133.086,199.901,133.733,199.588z M267.643,304.554l51.398-153.47l-70.627-23.968l-16.982,50.691
					l-32.133-10.755l16.978-50.709l-74.193-24.556L82.784,268.773l156.947,52.552C247.076,313.274,256.715,307.308,267.643,304.554z
					"/>
			</g>
			<g clip-path="url(#SVGID_18_)">
				<defs>
					<rect id="SVGID_25_" x="74.968" y="57.519" width="376.75" height="376.75"/>
				</defs>
				<clipPath id="SVGID_26_">
					<use xlink:href="#SVGID_25_"  overflow="visible"/>
				</clipPath>
				<path clip-path="url(#SVGID_26_)" fill="#005082" d="M281.397,374.311c-8.305,0-15.056-6.724-15.056-15.035
					c0-8.288,6.751-15.024,15.056-15.024c8.301,0,15.02,6.736,15.02,15.024C296.417,367.587,289.698,374.311,281.397,374.311z
					 M281.397,318.585c-22.481,0-40.689,18.229-40.689,40.69c0,22.495,18.208,40.725,40.689,40.725
					c22.483,0,40.702-18.229,40.702-40.725C322.101,336.815,303.882,318.585,281.397,318.585z"/>
			</g>
		</g>
	</g>
</g>
<g id="Layer_2">
</g>
</svg>
